<svg width="12" height="13" viewBox="0 0 12 13" fill="none" xmlns="http://www.w3.org/2000/svg">
<g clip-path="url(#clip0)">
<path d="M11.5418 0.712568C11.5362 0.714372 11.5302 0.711888 11.5245 0.713974L0.274519 4.93273C0.151261 4.97909 0.0640735 5.09065 0.0489563 5.22181C0.0338391 5.35297 0.0932533 5.48136 0.203105 5.55448L2.66951 7.19853L3.57181 10.9687C3.57417 10.9786 3.58027 10.9865 3.58343 10.996C3.66453 11.2434 3.97599 11.3219 4.16232 11.1355L5.9273 9.37056L8.64062 11.1795C8.83722 11.3113 9.10825 11.2129 9.1738 10.9835L11.9863 1.13969C12.0618 0.874755 11.8131 0.625474 11.5418 0.712568ZM4.42702 7.86369C4.3688 7.92266 4.35127 7.97045 4.33085 8.04479C4.3306 8.04618 4.32999 8.04747 4.32973 8.04882L3.93743 9.47526L3.37849 7.13964L8.82362 3.40599L4.42702 7.86369Z" fill="#E7E7E7"/>
</g>
<defs>
<clipPath id="clip0">
<rect width="12" height="12" fill="white" transform="translate(0 0.693207)"/>
</clipPath>
</defs>
</svg>
